# xmcd
#
# Track frame offsets:
#	150
#	796
#	19149
#	39625
#	54978
#	72422
#	90972
#	92373
#	109856
#	120291
#	137637
#	150102
#	167047
#	185220
#	202663
#
# Disc length: 3654 seconds
#
# Revision: 0
# Processed by: cddbd v1.5.2PL0 Copyright (c) Steve Scherf et al.
# Submitted via: audiograbber 1.83.01
#
DISCID=a60e440f
DTITLE=Sparkwood - The La La Crutch
DYEAR=2000
DGENRE=Pop
TTITLE0=Intro
TTITLE1=Ben And Katy
TTITLE2=Wurly
TTITLE3=Wonderin' Why
TTITLE4=Naked Truth
TTITLE5=Ramie
TTITLE6=The Shave
TTITLE7=Music Lane
TTITLE8=Cockroach Stomp
TTITLE9=Marianne
TTITLE10=Trilogy I
TTITLE11=Trilogy II
TTITLE12=What In The World
TTITLE13=Same As Before
TTITLE14=Weeks Gone By
EXTD=
EXTT0=
EXTT1=
EXTT2=
EXTT3=
EXTT4=
EXTT5=
EXTT6=
EXTT7=
EXTT8=
EXTT9=
EXTT10=
EXTT11=
EXTT12=
EXTT13=
EXTT14=
PLAYORDER=
